<svg xmlns="http://www.w3.org/2000/svg" width="920" height="520" viewBox="0 0 920 520" fill="none">


<rect width="920" height="520" fill="#F7F9FC"/>
<text x="24" y="36" fill="#08254A" font-family="Inter, Arial, sans-serif" font-size="24" font-weight="700">CatsBack SVG Pack Preview</text>
<text x="24" y="58" fill="#8B97AA" font-family="Inter, Arial, sans-serif" font-size="14">Core icons, badges, buttons, metric cards and summary panel for Codex implementation.</text>

<g transform="translate(24,90)">
  <rect x="0" y="0" width="872" height="164" rx="18" fill="#FFFFFF" stroke="#DCE4EE"/>
  <text x="20" y="28" fill="#08254A" font-family="Inter, Arial, sans-serif" font-size="16" font-weight="700">Icons</text>

<
<g transform="translate(24,122)">
  <rect x="0" y="0" width="40" height="40" rx="10" fill="#F7F9FC" stroke="#DCE4EE"/>
  <g transform="translate(10,10)">


<path d="M4 10.2L11 4L18 10.2V17C18 17.55 17.55 18 17 18H5C4.45 18 4 17.55 4 17V10.2Z" stroke="#FFFFFF" stroke-width="1.9" stroke-linejoin="round"/>
<path d="M9 18V12H13V18" stroke="#FFFFFF" stroke-width="1.9" stroke-linejoin="round"/>

</g>
  <text x="50" y="24" fill="#08254A" font-family="Inter, Arial, sans-serif" font-size="11">cb-home</text>
</g>

<g transform="translate(128,122)">
  <rect x="0" y="0" width="40" height="40" rx="10" fill="#F7F9FC" stroke="#DCE4EE"/>
  <g transform="translate(10,10)">


<path d="M8.8 13.2L6.9 15.1C5.15 16.85 2.35 16.85 0.6 15.1C-1.15 13.35 -1.15 10.55 0.6 8.8L4.2 5.2C5.95 3.45 8.75 3.45 10.5 5.2" transform="translate(5.5 0.8)" stroke="#FFFFFF" stroke-width="1.9" stroke-linecap="round"/>
<path d="M13.2 8.8L15.1 6.9C16.85 5.15 19.65 5.15 21.4 6.9C23.15 8.65 23.15 11.45 21.4 13.2L17.8 16.8C16.05 18.55 13.25 18.55 11.5 16.8" transform="translate(-4.9 -0.8)" stroke="#FFFFFF" stroke-width="1.9" stroke-linecap="round"/>

</g>
  <text x="50" y="24" fill="#08254A" font-family="Inter, Arial, sans-serif" font-size="11">cb-link</text>
</g>

<g transform="translate(232,122)">
  <rect x="0" y="0" width="40" height="40" rx="10" fill="#F7F9FC" stroke="#DCE4EE"/>
  <g transform="translate(10,10)">


<rect x="3" y="9" width="16" height="10" rx="2" stroke="#FFFFFF" stroke-width="1.9"/>
<path d="M11 9V19" stroke="#FFFFFF" stroke-width="1.9"/>
<path d="M3 13H19" stroke="#FFFFFF" stroke-width="1.9"/>
<path d="M8.3 9C7 9 6 8.2 6 7.1C6 5.9 6.9 5.2 8 5.2C9.7 5.2 10.6 7.1 11 9C11.4 7.1 12.3 5.2 14 5.2C15.1 5.2 16 5.9 16 7.1C16 8.2 15 9 13.7 9" stroke="#FFFFFF" stroke-width="1.9" stroke-linecap="round" stroke-linejoin="round"/>

</g>
  <text x="50" y="24" fill="#08254A" font-family="Inter, Arial, sans-serif" font-size="11">cb-gift</text>
</g>

<g transform="translate(336,122)">
  <rect x="0" y="0" width="40" height="40" rx="10" fill="#F7F9FC" stroke="#DCE4EE"/>
  <g transform="translate(10,10)">


<path d="M4.5 10.5C4.5 6.91 7.41 4 11 4C14.59 4 17.5 6.91 17.5 10.5C17.5 14.09 14.59 17 11 17C8.7 17 6.67 15.81 5.52 14" stroke="#FFFFFF" stroke-width="1.9" stroke-linecap="round"/>
<path d="M2.8 10.8L4.8 8.9L6.7 11" stroke="#FFFFFF" stroke-width="1.9" stroke-linecap="round" stroke-linejoin="round"/>
<path d="M11 7V10.8L13.3 12.1" stroke="#FFFFFF" stroke-width="1.9" stroke-linecap="round" stroke-linejoin="round"/>

</g>
  <text x="50" y="24" fill="#08254A" font-family="Inter, Arial, sans-serif" font-size="11">cb-history</text>
</g>

<g transform="translate(440,122)">
  <rect x="0" y="0" width="40" height="40" rx="10" fill="#F7F9FC" stroke="#DCE4EE"/>
  <g transform="translate(10,10)">


<rect x="3" y="5" width="16" height="12" rx="2.2" stroke="#FFFFFF" stroke-width="1.9"/>
<path d="M14 9.5H19V12.5H14C13.17 12.5 12.5 11.83 12.5 11C12.5 10.17 13.17 9.5 14 9.5Z" stroke="#FFFFFF" stroke-width="1.9"/>
<circle cx="14.8" cy="11" r="0.7" fill="#FFFFFF"/>

</g>
  <text x="50" y="24" fill="#08254A" font-family="Inter, Arial, sans-serif" font-size="11">cb-wallet-menu</text>
</g>

<g transform="translate(544,122)">
  <rect x="0" y="0" width="40" height="40" rx="10" fill="#F7F9FC" stroke="#DCE4EE"/>
  <g transform="translate(10,10)">


<circle cx="9" cy="9" r="5.5" stroke="#08254A" stroke-width="2"/>
<path d="M13.5 13.5L17 17" stroke="#08254A" stroke-width="2" stroke-linecap="round"/>

</g>
  <text x="50" y="24" fill="#08254A" font-family="Inter, Arial, sans-serif" font-size="11">cb-search-dark</text>
</g>

<g transform="translate(648,122)">
  <rect x="0" y="0" width="40" height="40" rx="10" fill="#F7F9FC" stroke="#DCE4EE"/>
  <g transform="translate(10,10)">


<path d="M3 8.5H17V16C17 16.55 16.55 17 16 17H4C3.45 17 3 16.55 3 16V8.5Z" stroke="#08254A" stroke-width="1.8" stroke-linejoin="round"/>
<path d="M4.2 5.2C4.35 4.5 4.96 4 5.68 4H14.32C15.04 4 15.65 4.5 15.8 5.2L16.3 7.5C16.43 8.09 15.98 8.65 15.37 8.65C14.95 8.65 14.57 8.41 14.39 8.03L14.28 7.8C14.04 7.29 13.31 7.29 13.07 7.8L12.98 7.99C12.66 8.66 11.7 8.66 11.38 7.99L11.29 7.8C11.05 7.29 10.32 7.29 10.08 7.8L9.99 7.99C9.67 8.66 8.71 8.66 8.39 7.99L8.3 7.8C8.06 7.29 7.33 7.29 7.09 7.8L6.98 8.03C6.8 8.41 6.42 8.65 6 8.65C5.39 8.65 4.94 8.09 5.07 7.5L4.2 5.2Z" stroke="#08254A" stroke-width="1.8" stroke-linejoin="round"/>

</g>
  <text x="50" y="24" fill="#08254A" font-family="Inter, Arial, sans-serif" font-size="11">cb-store</text>
</g>

<g transform="translate(752,122)">
  <rect x="0" y="0" width="40" height="40" rx="10" fill="#F7F9FC" stroke="#DCE4EE"/>
  <g transform="translate(10,10)">


<rect x="3" y="6" width="18" height="12" rx="3" stroke="#0B9098" stroke-width="2"/>
<path d="M15 10H21V14H15C13.9 14 13 13.1 13 12C13 10.9 13.9 10 15 10Z" stroke="#0B9098" stroke-width="2"/>
<circle cx="16.5" cy="12" r="0.8" fill="#0B9098"/>

</g>
  <text x="50" y="24" fill="#08254A" font-family="Inter, Arial, sans-serif" font-size="11">cb-wallet</text>
</g>

<g transform="translate(24,180)">
  <rect x="0" y="0" width="40" height="40" rx="10" fill="#F7F9FC" stroke="#DCE4EE"/>
  <g transform="translate(10,10)">


<path d="M7 17L17 7" stroke="#0B9098" stroke-width="2.2" stroke-linecap="round"/>
<circle cx="8" cy="8" r="2.3" stroke="#0B9098" stroke-width="2"/>
<circle cx="16" cy="16" r="2.3" stroke="#0B9098" stroke-width="2"/>

</g>
  <text x="50" y="24" fill="#08254A" font-family="Inter, Arial, sans-serif" font-size="11">cb-percent</text>
</g>

<g transform="translate(128,180)">
  <rect x="0" y="0" width="40" height="40" rx="10" fill="#F7F9FC" stroke="#DCE4EE"/>
  <g transform="translate(10,10)">


<circle cx="12" cy="12" r="8" stroke="#0B9098" stroke-width="2"/>
<path d="M12 7.8V16.2" stroke="#0B9098" stroke-width="2" stroke-linecap="round"/>
<path d="M14.8 9.5C14.4 8.6 13.4 8 12.2 8C10.7 8 9.5 8.9 9.5 10.1C9.5 11.1 10.3 11.7 11.7 12L12.9 12.25C14.2 12.52 15 13.15 15 14.1C15 15.4 13.8 16.3 12.1 16.3C10.7 16.3 9.5 15.7 9 14.6" stroke="#0B9098" stroke-width="1.8" stroke-linecap="round"/>

</g>
  <text x="50" y="24" fill="#08254A" font-family="Inter, Arial, sans-serif" font-size="11">cb-cashback</text>
</g>

<g transform="translate(232,180)">
  <rect x="0" y="0" width="40" height="40" rx="10" fill="#F7F9FC" stroke="#DCE4EE"/>
  <g transform="translate(10,10)">


<circle cx="10" cy="10" r="7" stroke="#9A5A00" stroke-width="1.9"/>
<path d="M10 6.2V10.1L12.8 11.9" stroke="#9A5A00" stroke-width="1.9" stroke-linecap="round" stroke-linejoin="round"/>

</g>
  <text x="50" y="24" fill="#08254A" font-family="Inter, Arial, sans-serif" font-size="11">cb-clock</text>
</g>

<g transform="translate(336,180)">
  <rect x="0" y="0" width="40" height="40" rx="10" fill="#F7F9FC" stroke="#DCE4EE"/>
  <g transform="translate(10,10)">


<circle cx="10" cy="10" r="7" stroke="#177B60" stroke-width="1.9"/>
<path d="M6.7 10.1L8.8 12.2L13.4 7.7" stroke="#177B60" stroke-width="2" stroke-linecap="round" stroke-linejoin="round"/>

</g>
  <text x="50" y="24" fill="#08254A" font-family="Inter, Arial, sans-serif" font-size="11">cb-badge-check</text>
</g>

<g transform="translate(440,180)">
  <rect x="0" y="0" width="40" height="40" rx="10" fill="#F7F9FC" stroke="#DCE4EE"/>
  <g transform="translate(10,10)">


<circle cx="10" cy="10" r="7" stroke="#D43E4F" stroke-width="1.9"/>
<path d="M7.4 7.4L12.6 12.6M12.6 7.4L7.4 12.6" stroke="#D43E4F" stroke-width="2" stroke-linecap="round"/>

</g>
  <text x="50" y="24" fill="#08254A" font-family="Inter, Arial, sans-serif" font-size="11">cb-circle-x</text>
</g>

<g transform="translate(544,180)">
  <rect x="0" y="0" width="40" height="40" rx="10" fill="#F7F9FC" stroke="#DCE4EE"/>
  <g transform="translate(10,10)">


<path d="M12 3L18 5.5V11.4C18 15.1 15.45 18.5 12 19.8C8.55 18.5 6 15.1 6 11.4V5.5L12 3Z" stroke="#0B9098" stroke-width="2" stroke-linejoin="round"/>
<path d="M9.1 11.4L11.1 13.4L14.9 9.6" stroke="#0B9098" stroke-width="2" stroke-linecap="round" stroke-linejoin="round"/>

</g>
  <text x="50" y="24" fill="#08254A" font-family="Inter, Arial, sans-serif" font-size="11">cb-shield-check</text>
</g>

<g transform="translate(648,180)">
  <rect x="0" y="0" width="40" height="40" rx="10" fill="#F7F9FC" stroke="#DCE4EE"/>
  <g transform="translate(10,10)">


<path d="M5 12C5 8.13 8.13 5 12 5C15.87 5 19 8.13 19 12" stroke="#FFFFFF" stroke-width="2"/>
<rect x="4" y="11" width="3.8" height="6.5" rx="1.9" stroke="#FFFFFF" stroke-width="2"/>
<rect x="16.2" y="11" width="3.8" height="6.5" rx="1.9" stroke="#FFFFFF" stroke-width="2"/>
<path d="M8 18.2C8.8 19.1 10.1 19.7 11.6 19.7H13.2" stroke="#FFFFFF" stroke-width="2" stroke-linecap="round"/>

</g>
  <text x="50" y="24" fill="#08254A" font-family="Inter, Arial, sans-serif" font-size="11">cb-headphones</text>
</g>

<g transform="translate(752,180)">
  <rect x="0" y="0" width="40" height="40" rx="10" fill="#F7F9FC" stroke="#DCE4EE"/>
  <g transform="translate(10,10)">


<circle cx="12" cy="8.2" r="3.2" stroke="#FFFFFF" stroke-width="2"/>
<path d="M6 18.5C6.8 15.8 9.1 14.2 12 14.2C14.9 14.2 17.2 15.8 18 18.5" stroke="#FFFFFF" stroke-width="2" stroke-linecap="round"/>

</g>
  <text x="50" y="24" fill="#08254A" font-family="Inter, Arial, sans-serif" font-size="11">cb-user</text>
</g>
</g>
<g transform="translate(24,278)">
  <rect x="0" y="0" width="420" height="218" rx="18" fill="#FFFFFF" stroke="#DCE4EE"/>
  <text x="20" y="28" fill="#08254A" font-family="Inter, Arial, sans-serif" font-size="16" font-weight="700">Status + chips + support</text>
<g transform="translate(20,46)">


<rect x="0.5" y="0.5" width="129" height="35" rx="17.5" fill="#FFF2C9" stroke="#F8DE92"/>
<circle cx="18" cy="18" r="10" fill="#FFFFFF" opacity="0.95"/>
<g transform="translate(8,8) scale(0.8)">


<circle cx="10" cy="10" r="7" stroke="#9A5A00" stroke-width="1.9"/>
<path d="M10 6.2V10.1L12.8 11.9" stroke="#9A5A00" stroke-width="1.9" stroke-linecap="round" stroke-linejoin="round"/>

</g>
<text x="34" y="22" fill="#9A5A00" font-family="Inter, Arial, sans-serif" font-size="13" font-weight="600">Chờ xử lý</text>

</g><g transform="translate(20,92)">


<rect x="0.5" y="0.5" width="137" height="35" rx="17.5" fill="#E7F7EF" stroke="#C7EEDC"/>
<circle cx="18" cy="18" r="10" fill="#FFFFFF" opacity="0.95"/>
<g transform="translate(8,8) scale(0.8)">


<circle cx="10" cy="10" r="7" stroke="#177B60" stroke-width="1.9"/>
<path d="M6.7 10.1L8.8 12.2L13.4 7.7" stroke="#177B60" stroke-width="2" stroke-linecap="round" stroke-linejoin="round"/>

</g>
<text x="34" y="22" fill="#177B60" font-family="Inter, Arial, sans-serif" font-size="13" font-weight="600">Đã xác nhận</text>

</g><g transform="translate(20,138)">


<rect x="0.5" y="0.5" width="103" height="35" rx="17.5" fill="#FCEAEC" stroke="#F7CDD3"/>
<circle cx="18" cy="18" r="10" fill="#FFFFFF" opacity="0.95"/>
<g transform="translate(8,8) scale(0.8)">


<circle cx="10" cy="10" r="7" stroke="#D43E4F" stroke-width="1.9"/>
<path d="M7.4 7.4L12.6 12.6M12.6 7.4L7.4 12.6" stroke="#D43E4F" stroke-width="2" stroke-linecap="round"/>

</g>
<text x="34" y="22" fill="#D43E4F" font-family="Inter, Arial, sans-serif" font-size="13" font-weight="600">Đã hủy</text>

</g><g transform="translate(190,46)">


<rect x="0.5" y="0.5" width="75" height="39" rx="20" fill="#0B9098" stroke="#0B9098"/>
<text x="38.0" y="25" text-anchor="middle" fill="#FFFFFF" font-family="Inter, Arial, sans-serif" font-size="14" font-weight="600">Tất cả</text>

</g><g transform="translate(190,92)">


<rect x="0.5" y="0.5" width="111" height="39" rx="20" fill="#FFFFFF" stroke="#DCE4EE"/>
<text x="56.0" y="25" text-anchor="middle" fill="#08254A" font-family="Inter, Arial, sans-serif" font-size="14" font-weight="600">Chờ xử lý</text>

</g><g transform="translate(190,138)">


<rect x="0.5" y="0.5" width="117" height="39" rx="20" fill="#FFFFFF" stroke="#DCE4EE"/>
<text x="59.0" y="25" text-anchor="middle" fill="#08254A" font-family="Inter, Arial, sans-serif" font-size="14" font-weight="600">Đã xác nhận</text>

</g><g transform="translate(190,184)">


<rect x="0.5" y="0.5" width="85" height="39" rx="20" fill="#FFFFFF" stroke="#DCE4EE"/>
<text x="43.0" y="25" text-anchor="middle" fill="#08254A" font-family="Inter, Arial, sans-serif" font-size="14" font-weight="600">Đã hủy</text>

</g></g>
<g transform="translate(468,278)">
  <rect x="0" y="0" width="428" height="218" rx="18" fill="#FFFFFF" stroke="#DCE4EE"/>
  <text x="20" y="28" fill="#08254A" font-family="Inter, Arial, sans-serif" font-size="16" font-weight="700">Controls + cards</text>
  <g transform="translate(20,46)">



<rect x="0.5" y="0.5" width="419" height="39" rx="10" fill="#FFFFFF" stroke="#DCE4EE"/>
<g transform="translate(14,10)">
  <circle cx="9" cy="9" r="5.5" stroke="#8B97AA" stroke-width="2"/>
  <path d="M13.5 13.5L17 17" stroke="#8B97AA" stroke-width="2" stroke-linecap="round"/>
</g>
<text x="46" y="25" fill="#8B97AA" font-family="Inter, Arial, sans-serif" font-size="14">Tìm sản phẩm hoặc cửa hàng...</text>


  </g>
  <g transform="translate(54,104) scale(0.95)">



<defs>
  <linearGradient id="g1" x1="0" y1="0" x2="320" y2="52" gradientUnits="userSpaceOnUse">
    <stop offset="0" stop-color="#001B3D"/>
    <stop offset="1" stop-color="#0B5C86"/>
  </linearGradient>
</defs>
<rect x="0.5" y="0.5" width="319" height="51" rx="16" fill="url(#g1)" stroke="#0A6A84"/>
<g transform="translate(20,14)">
  <path d="M5 12C5 8.13 8.13 5 12 5C15.87 5 19 8.13 19 12" stroke="#FFFFFF" stroke-width="2"/>
  <rect x="4" y="11" width="3.8" height="6.5" rx="1.9" stroke="#FFFFFF" stroke-width="2"/>
  <rect x="16.2" y="11" width="3.8" height="6.5" rx="1.9" stroke="#FFFFFF" stroke-width="2"/>
  <path d="M8 18.2C8.8 19.1 10.1 19.7 11.6 19.7H13.2" stroke="#FFFFFF" stroke-width="2" stroke-linecap="round"/>
</g>
<text x="58" y="31" fill="#FFFFFF" font-family="Inter, Arial, sans-serif" font-size="16" font-weight="600">Cần hỗ trợ?</text>
<path d="M286 19L294 26L286 33" stroke="#FFFFFF" stroke-width="2.2" stroke-linecap="round" stroke-linejoin="round"/>


  </g>
</g>
</svg>
