<svg xmlns="http://www.w3.org/2000/svg" width="1440" height="810" viewBox="0 0 1440 810">
<rect width="1440" height="810" fill="#f8fbf2"/>
<rect x="20" y="16" width="1400" height="110" rx="22" fill="#fff8e8" stroke="#8d5524" stroke-width="3"/>
<circle cx="60" cy="70" r="28" fill="#ffffff" stroke="#24483f"/><text x="60" y="77" text-anchor="middle" font-family="sans-serif" font-size="24">Ⅱ</text>
<rect x="410" y="30" width="620" height="80" rx="22" fill="#fffdf4" stroke="#dda15e" stroke-width="3"/><text x="720" y="78" text-anchor="middle" font-family="sans-serif" font-size="34" fill="#24483f">🔊  Pop the circle.</text>
<rect x="1190" y="34" width="190" height="70" rx="20" fill="#fffdf4" stroke="#dda15e"/><text x="1285" y="79" text-anchor="middle" font-size="32">★ ★ ☆</text>
<rect x="90" y="155" width="1260" height="420" rx="30" fill="#dff3cf" stroke="#6fb86b" stroke-dasharray="10 8"/>
<text x="720" y="184" text-anchor="middle" font-family="sans-serif" font-size="20" fill="#24483f">BALLOON PLAYFIELD SAFE ZONE</text>
<g font-family="sans-serif" text-anchor="middle">
 <g transform="translate(260 330)"><ellipse rx="82" ry="105" fill="#ff8f86" stroke="#8d5524" stroke-width="3"/><text y="8" font-size="26">ball</text></g>
 <g transform="translate(555 290)"><ellipse rx="82" ry="105" fill="#74c9ff" stroke="#8d5524" stroke-width="3"/><text y="8" font-size="26">circle</text></g>
 <g transform="translate(860 360)"><ellipse rx="82" ry="105" fill="#ffd768" stroke="#8d5524" stroke-width="3"/><text y="8" font-size="26">star</text></g>
 <g transform="translate(1160 305)"><ellipse rx="82" ry="105" fill="#c8a0ff" stroke="#8d5524" stroke-width="3"/><text y="8" font-size="26">flower</text></g>
</g>
<path d="M720 690 Q700 560 560 300" fill="none" stroke="#ffffff" stroke-width="6" stroke-dasharray="4 16"/>
<g transform="translate(720 695)"><rect x="-75" y="25" width="150" height="55" rx="20" fill="#dda15e" stroke="#8d5524" stroke-width="4"/><rect x="-22" y="-55" width="44" height="100" rx="18" fill="#74c9ff" stroke="#24483f" stroke-width="4" transform="rotate(-25)"/><text x="0" y="105" text-anchor="middle" font-family="sans-serif" font-size="18">LAUNCHER SAFE ZONE</text></g>
<rect x="440" y="758" width="560" height="40" rx="18" fill="#fff8e8" stroke="#dda15e"/><text x="720" y="785" text-anchor="middle" font-family="sans-serif" font-size="18">Aim and shoot • Ngắm và bắn</text>
</svg>